Coordinates
version=1
nRows=12
nColumns=24
inDegrees=yes

Units are S.I. units (second, meters, Newtons, ...)
Angles are in degrees.

endheader
time	pelvis_tilt	pelvis_list	pelvis_rotation	pelvis_tx	pelvis_ty	pelvis_tz	hip_flexion_r	hip_adduction_r	hip_rotation_r	knee_angle_r	ankle_angle_r	subtalar_angle_r	mtp_angle_r	hip_flexion_l	hip_adduction_l	hip_rotation_l	knee_angle_l	ankle_angle_l	subtalar_angle_l	mtp_angle_l	lumbar_extension	lumbar_bending	lumbar_rotation
      1.30000000	     -0.68074554	     -6.58707608	     -1.86253715	      0.04229769	      1.04286639	      0.35118101	    -19.13996438	     12.02777880	     -3.03390443	     -3.00266318	      4.41213780	     -8.47882296	     -0.36556215	     24.07975973	     -3.55689485	     -7.23402793	      4.12500407	     11.76209685	      6.05252242	     -8.87205324	      6.11395161	     11.48288378	      2.36169816
      1.30416667	     -0.67294968	     -6.55554634	     -1.90252569	      0.04806872	      1.04261933	      0.35115303	    -19.29684384	     11.94204844	     -3.00374744	     -3.34201098	      4.28315165	     -8.46829423	     -0.35415581	     24.02410355	     -3.51647170	     -7.13911142	      3.71714151	     11.82078380	      5.97916388	     -8.86568324	      6.18552410	     11.40745947	      2.39603656
      1.30833333	     -0.64661700	     -6.43487622	     -1.94189022	      0.05415007	      1.04244705	      0.35109607	    -19.49234735	     11.75551947	     -3.03261888	     -3.62739845	      3.85375750	     -8.44108028	     -0.30836263	     23.87990590	     -3.37892261	     -6.97586493	      3.37106224	     12.05176035	      5.65700109	     -8.84214765	      6.21334401	     11.24850796	      2.49840086
      1.31250000	     -0.55620114	     -6.35833413	     -1.96270332	      0.06005741	      1.04236942	      0.35098712	    -19.72515176	     11.61597565	     -3.08684605	     -3.96526320	      3.50744918	     -8.46473392	     -0.20465970	     23.66812636	     -3.28114342	     -6.69201157	      3.04387608	     11.94326080	      5.16915331	     -8.80448140	      6.14994691	     11.13858787	      2.64382583
      1.31666667	     -0.56493225	     -6.32784130	     -2.01686085	      0.06594921	      1.04218212	      0.35094599	    -19.84107296	     11.52515419	     -3.03875923	     -4.35593676	      3.45021295	     -8.46616298	     -0.19298923	     23.57951013	     -3.24812533	     -6.59211335	      2.66352733	     11.90932345	      5.13568081	     -8.79980837	      6.21723293	     11.09422311	      2.66363843
      1.32083333	     -0.50797446	     -6.20583010	     -2.12193100	      0.07210560	      1.04217251	      0.35091584	    -20.03073638	     11.30521632	     -3.05857003	     -4.72247779	      3.01579046	     -8.41406646	     -0.11472043	     23.33601282	     -3.13260227	     -6.49175023	      2.39700542	     11.78049562	      4.72896585	     -8.76910313	      6.25809866	     10.94124207	      2.77056326
      1.32500000	     -0.51157134	     -6.18052680	     -2.17491548	      0.07803408	      1.04203751	      0.35085649	    -20.12465217	     11.21716719	     -3.02663753	     -5.16540367	      2.93435994	     -8.42160965	     -0.10183358	     23.20995118	     -3.10461877	     -6.38708557	      2.06409750	     11.71825744	      4.69054831	     -8.76377500	      6.32298535	     10.88326595	      2.79573019
      1.32916667	     -0.45495796	     -6.01627551	     -2.29874602	      0.08437860	      1.04211659	      0.35081766	    -20.29174477	     10.94006673	     -3.10523818	     -5.56848338	      2.38485783	     -8.37664709	     -0.01628931	     22.90934330	     -2.94439634	     -6.33146953	      1.89468834	     11.34174973	      4.21289963	     -8.73030043	      6.35261105	     10.70850263	      2.92606129
      1.33333333	     -0.44297173	     -6.00577949	     -2.35484903	      0.09030153	      1.04206262	      0.35075151	    -20.36757759	     10.86270513	     -3.07804387	     -6.06775632	      2.28070013	     -8.38360183	      0.00188446	     22.73574600	     -2.93270469	     -6.22461546	      1.61699694	     11.24970654	      4.15224281	     -8.72220478	      6.42143316	     10.64008222	      2.95826151
      1.33750000	     -0.40218588	     -5.82028538	     -2.50500198	      0.09678269	      1.04218998	      0.35071897	    -20.49301043	     10.54837874	     -3.16651544	     -6.51630424	      1.67252146	     -8.32720744	      0.09705941	     22.40450644	     -2.75310289	     -6.22594435	      1.54085467	     10.67283240	      3.60925158	     -8.68308843	      6.45011687	     10.47759694	      3.09448744
      1.34166667	     -0.32515949	     -5.71290323	     -2.63448692	      0.10297600	      1.04236817	      0.35065786	    -20.61343305	     10.32213927	     -3.20586254	     -7.04714320	      1.29585768	     -8.31015042	      0.21375686	     22.04883860	     -2.65025308	     -6.07752093	      1.46522758	     10.18007836	      3.10645796	     -8.62774844	      6.40585759	     10.34050845	      3.23149913
      1.34583333	     -0.25321993	     -5.60919415	     -2.72305988	      0.10919920	      1.04253950	      0.35056756	    -20.71407754	     10.11470605	     -3.28211572	     -7.59191282	      0.87446848	     -8.26757348	      0.34226039	     21.71436598	     -2.53639026	     -6.03835848	      1.37228541	      9.67128668	      2.60045245	     -8.56308180	      6.43163935	     10.21033778	      3.36266784
